<svg width="44" height="44" viewBox="0 0 44 44" fill="none" xmlns="http://www.w3.org/2000/svg">
<rect width="44" height="44" rx="22" fill="#E5E5FF" fill-opacity="0.1"/>
<path d="M22 32.3418C20.3867 32.3418 19.0013 31.9271 17.8438 31.0977C16.6862 30.2682 15.7975 29.0924 15.1777 27.5703C14.5579 26.0391 14.248 24.2298 14.248 22.1426V22.1152C14.248 20.028 14.5579 18.2233 15.1777 16.7012C15.7975 15.1699 16.6862 13.9941 17.8438 13.1738C19.0013 12.3444 20.3867 11.9297 22 11.9297C23.6042 11.9297 24.985 12.3444 26.1426 13.1738C27.3092 13.9941 28.2025 15.1699 28.8223 16.7012C29.4421 18.2233 29.752 20.028 29.752 22.1152V22.1426C29.752 24.2298 29.4421 26.0391 28.8223 27.5703C28.2025 29.0924 27.3092 30.2682 26.1426 31.0977C24.985 31.9271 23.6042 32.3418 22 32.3418ZM22 29.457C22.8841 29.457 23.6406 29.1654 24.2695 28.582C24.8984 27.9987 25.377 27.1602 25.7051 26.0664C26.0332 24.9727 26.1973 23.6647 26.1973 22.1426V22.1152C26.1973 20.5931 26.0332 19.2897 25.7051 18.2051C25.377 17.1113 24.8984 16.2773 24.2695 15.7031C23.6406 15.1198 22.8841 14.8281 22 14.8281C21.1068 14.8281 20.3457 15.1198 19.7168 15.7031C19.097 16.2773 18.623 17.1113 18.2949 18.2051C17.9668 19.2897 17.8027 20.5931 17.8027 22.1152V22.1426C17.8027 23.6647 17.9668 24.9727 18.2949 26.0664C18.623 27.1602 19.097 27.9987 19.7168 28.582C20.3457 29.1654 21.1068 29.457 22 29.457Z" fill="white"/>
</svg>
