<svg width="44" height="44" viewBox="0 0 44 44" fill="none" xmlns="http://www.w3.org/2000/svg">
<rect width="44" height="44" rx="22" fill="url(#paint0_linear_787_4939)"/>
<path d="M15.2188 32V29.5938L22.1777 22.7988C23.0436 21.9603 23.6999 21.263 24.1465 20.707C24.5931 20.1419 24.8984 19.6406 25.0625 19.2031C25.2357 18.7565 25.3223 18.2917 25.3223 17.8086V17.7812C25.3223 17.1888 25.181 16.6693 24.8984 16.2227C24.625 15.7669 24.2422 15.4115 23.75 15.1562C23.2669 14.8919 22.7109 14.7598 22.082 14.7598C21.3529 14.7598 20.7057 14.9102 20.1406 15.2109C19.5846 15.5026 19.1426 15.9036 18.8145 16.4141C18.4954 16.9154 18.3314 17.485 18.3223 18.123V18.2188H15.0137V18.123C15.0137 16.9199 15.3236 15.8535 15.9434 14.9238C16.5632 13.9941 17.4017 13.265 18.459 12.7363C19.5254 12.1986 20.724 11.9297 22.0547 11.9297C23.3672 11.9297 24.5293 12.1758 25.541 12.668C26.5527 13.151 27.3411 13.821 27.9062 14.6777C28.4805 15.5254 28.7676 16.4915 28.7676 17.5762V17.6035C28.7676 18.3783 28.6263 19.1029 28.3438 19.7773C28.0703 20.4518 27.6009 21.1855 26.9355 21.9785C26.2793 22.7715 25.3678 23.724 24.2012 24.8359L18.5957 30.1816L19.8672 27.8574V30.1816L18.6094 29.1152H29.0684V32H15.2188Z" fill="white"/>
<defs>
<linearGradient id="paint0_linear_787_4939" x1="22" y1="0" x2="22" y2="44" gradientUnits="userSpaceOnUse">
<stop stop-color="#ADADFF"/>
<stop offset="0.442708" stop-color="#7676D3"/>
</linearGradient>
</defs>
</svg>
