<svg width="44" height="44" viewBox="0 0 44 44" fill="none" xmlns="http://www.w3.org/2000/svg">
<rect width="44" height="44" rx="22" fill="url(#paint0_linear_787_4938)"/>
<path d="M21.918 32.3418C20.4779 32.3418 19.2201 32.1003 18.1445 31.6172C17.069 31.1341 16.2168 30.4733 15.5879 29.6348C14.9681 28.7871 14.6081 27.8164 14.5078 26.7227L14.4941 26.5449H17.8574L17.8848 26.6953C17.9486 27.2331 18.1536 27.7116 18.5 28.1309C18.8464 28.541 19.3112 28.8646 19.8945 29.1016C20.4779 29.3385 21.1523 29.457 21.918 29.457C22.6836 29.457 23.349 29.3294 23.9141 29.0742C24.4883 28.8099 24.9303 28.4499 25.2402 27.9941C25.5592 27.5384 25.7188 27.0098 25.7188 26.4082V26.3809C25.7188 25.3418 25.3587 24.5443 24.6387 23.9883C23.9277 23.4323 22.9388 23.1543 21.6719 23.1543H19.334V20.5293H21.5898C22.319 20.5293 22.9525 20.4017 23.4902 20.1465C24.0371 19.8913 24.4609 19.5449 24.7617 19.1074C25.0716 18.6608 25.2266 18.1504 25.2266 17.5762V17.5488C25.2266 16.9473 25.0944 16.4414 24.8301 16.0312C24.5658 15.612 24.1829 15.293 23.6816 15.0742C23.1895 14.8464 22.5924 14.7324 21.8906 14.7324C21.1979 14.7324 20.5827 14.8464 20.0449 15.0742C19.5163 15.3021 19.0924 15.6257 18.7734 16.0449C18.4544 16.4551 18.263 16.9427 18.1992 17.5078L18.1855 17.6445H14.918L14.9316 17.4805C15.0319 16.3685 15.3783 15.3978 15.9707 14.5684C16.5723 13.7389 17.3789 13.0918 18.3906 12.627C19.4023 12.1621 20.569 11.9297 21.8906 11.9297C23.2487 11.9297 24.429 12.1484 25.4316 12.5859C26.4434 13.0143 27.2227 13.6159 27.7695 14.3906C28.3255 15.1562 28.6035 16.054 28.6035 17.084V17.1113C28.6035 17.9225 28.4212 18.6426 28.0566 19.2715C27.6921 19.8913 27.1953 20.4062 26.5664 20.8164C25.9466 21.2266 25.2448 21.5137 24.4609 21.6777V21.7461C25.9193 21.8828 27.0905 22.3659 27.9746 23.1953C28.8587 24.0156 29.3008 25.1094 29.3008 26.4766V26.5039C29.3008 27.6432 28.9863 28.6549 28.3574 29.5391C27.7376 30.4141 26.8763 31.1022 25.7734 31.6035C24.6706 32.0957 23.3854 32.3418 21.918 32.3418Z" fill="white"/>
<defs>
<linearGradient id="paint0_linear_787_4938" x1="22" y1="0" x2="22" y2="44" gradientUnits="userSpaceOnUse">
<stop stop-color="#DFA100"/>
<stop offset="1" stop-color="#7676D3"/>
</linearGradient>
</defs>
</svg>
