<svg width="44" height="44" viewBox="0 0 44 44" fill="none" xmlns="http://www.w3.org/2000/svg">
<rect width="44" height="44" rx="22" fill="#DFA100"/>
<path d="M23.0098 32V28.1992H13.166V25.2051C13.7129 24.3483 14.2598 23.487 14.8066 22.6211C15.3535 21.7552 15.9004 20.8939 16.4473 20.0371C16.9941 19.1712 17.5365 18.3099 18.0742 17.4531C18.6211 16.5872 19.168 15.7259 19.7148 14.8691C20.2617 14.0033 20.8086 13.1374 21.3555 12.2715H26.373V25.3281H29.0391V28.1992H26.373V32H23.0098ZM16.3379 25.3965H23.0645V14.9375H22.9824C22.5358 15.6302 22.0892 16.3229 21.6426 17.0156C21.2051 17.6992 20.763 18.3874 20.3164 19.0801C19.8789 19.7728 19.4368 20.4655 18.9902 21.1582C18.5436 21.8509 18.097 22.5436 17.6504 23.2363C17.2129 23.9199 16.7754 24.6081 16.3379 25.3008V25.3965Z" fill="white"/>
</svg>
