<svg width="44" height="44" viewBox="0 0 44 44" fill="none" xmlns="http://www.w3.org/2000/svg">
<rect width="44" height="44" rx="22" fill="url(#paint0_linear_787_4936)"/>
<path d="M22.2051 32.3418C20.8379 32.3418 19.6348 32.0911 18.5957 31.5898C17.5566 31.0885 16.7272 30.4095 16.1074 29.5527C15.4967 28.6868 15.1458 27.7116 15.0547 26.627L15.041 26.4492H18.3496L18.3633 26.5449C18.4544 27.0918 18.6732 27.5885 19.0195 28.0352C19.375 28.4818 19.8262 28.8327 20.373 29.0879C20.9199 29.3431 21.5397 29.4707 22.2324 29.4707C23.0163 29.4707 23.7044 29.3066 24.2969 28.9785C24.8984 28.6413 25.3678 28.181 25.7051 27.5977C26.0423 27.0052 26.2109 26.3216 26.2109 25.5469V25.5195C26.2109 24.763 26.0423 24.0977 25.7051 23.5234C25.3678 22.9401 24.8984 22.4844 24.2969 22.1562C23.7044 21.819 23.0208 21.6504 22.2461 21.6504C21.6901 21.6504 21.1706 21.7324 20.6875 21.8965C20.2044 22.0605 19.776 22.3021 19.4023 22.6211C19.2201 22.776 19.0469 22.9492 18.8828 23.1406C18.7188 23.3229 18.5775 23.5234 18.459 23.7422H15.3965L16.3398 12.2715H28.4531V15.1562H19.1562L18.6094 21.1035H18.6777C18.9694 20.6569 19.334 20.2786 19.7715 19.9688C20.2181 19.6589 20.724 19.4219 21.2891 19.2578C21.8633 19.0846 22.4785 18.998 23.1348 18.998C24.3926 18.998 25.5091 19.2806 26.4844 19.8457C27.4596 20.4017 28.2253 21.1628 28.7812 22.1289C29.3372 23.0951 29.6152 24.207 29.6152 25.4648V25.4922C29.6152 26.8411 29.3008 28.0306 28.6719 29.0605C28.043 30.0905 27.1725 30.8971 26.0605 31.4805C24.9486 32.0547 23.6634 32.3418 22.2051 32.3418Z" fill="white"/>
<defs>
<linearGradient id="paint0_linear_787_4936" x1="22" y1="0" x2="22" y2="44" gradientUnits="userSpaceOnUse">
<stop stop-color="#FFDB80"/>
<stop offset="0.453125" stop-color="#DFA100"/>
</linearGradient>
</defs>
</svg>
