<svg width="14" height="23" viewBox="0 0 14 23" fill="none" xmlns="http://www.w3.org/2000/svg">
<path d="M0.359375 11.5391C0.367188 11.2422 0.425781 10.9727 0.535156 10.7305C0.644531 10.4805 0.816406 10.2383 1.05078 10.0039L9.91016 1.33203C10.2695 0.980469 10.7031 0.804688 11.2109 0.804688C11.5547 0.804688 11.8672 0.890625 12.1484 1.0625C12.4375 1.22656 12.668 1.44922 12.8398 1.73047C13.0117 2.01172 13.0977 2.32422 13.0977 2.66797C13.0977 3.19141 12.8945 3.64844 12.4883 4.03906L4.76562 11.5273L12.4883 19.0273C12.8945 19.4336 13.0977 19.8945 13.0977 20.4102C13.0977 20.7539 13.0117 21.0664 12.8398 21.3477C12.668 21.6289 12.4375 21.8516 12.1484 22.0156C11.8672 22.1875 11.5547 22.2734 11.2109 22.2734C10.7031 22.2734 10.2695 22.0938 9.91016 21.7344L1.05078 13.0625C0.808594 12.8281 0.632812 12.5898 0.523438 12.3477C0.414062 12.0977 0.359375 11.8281 0.359375 11.5391Z" fill="#E6E6FF" fill-opacity="0.85"/>
</svg>
