<svg width="14" height="23" viewBox="0 0 14 23" fill="none" xmlns="http://www.w3.org/2000/svg">
<path d="M13.6406 11.5391C13.6328 11.2422 13.5742 10.9727 13.4648 10.7305C13.3555 10.4805 13.1836 10.2383 12.9492 10.0039L4.08984 1.33203C3.73047 0.980469 3.29688 0.804688 2.78906 0.804688C2.44531 0.804688 2.13281 0.890625 1.85156 1.0625C1.5625 1.22656 1.33203 1.44922 1.16016 1.73047C0.988281 2.01172 0.902344 2.32422 0.902344 2.66797C0.902344 3.19141 1.10547 3.64844 1.51172 4.03906L9.23438 11.5273L1.51172 19.0273C1.10547 19.4336 0.902344 19.8945 0.902344 20.4102C0.902344 20.7539 0.988281 21.0664 1.16016 21.3477C1.33203 21.6289 1.5625 21.8516 1.85156 22.0156C2.13281 22.1875 2.44531 22.2734 2.78906 22.2734C3.29688 22.2734 3.73047 22.0938 4.08984 21.7344L12.9492 13.0625C13.1914 12.8281 13.3672 12.5898 13.4766 12.3477C13.5859 12.0977 13.6406 11.8281 13.6406 11.5391Z" fill="#E6E6FF" fill-opacity="0.85"/>
</svg>
