<svg width="22" height="21" viewBox="0 0 22 21" fill="none" xmlns="http://www.w3.org/2000/svg">
<path fill-rule="evenodd" clip-rule="evenodd" d="M11.0003 16.7044C6.87939 16.7044 3.39745 15.6496 1.37748 13.9878C1.13849 14.3973 1.00049 14.8268 1.00049 15.2726C1.00049 17.909 5.47842 20.0452 11.0003 20.0452C16.5222 20.0452 21.0002 17.909 21.0002 15.2726C21.0002 14.8268 20.8622 14.3973 20.6232 13.9878C18.6042 15.6496 15.1213 16.7044 11.0003 16.7044Z" fill="#80808F"/>
<path fill-rule="evenodd" clip-rule="evenodd" d="M11.0003 11.9319C6.87939 11.9319 3.39745 10.8772 1.37748 9.21533C1.13849 9.62483 1.00049 10.0544 1.00049 10.5001C1.00049 13.1365 5.47842 15.2728 11.0003 15.2728C16.5222 15.2728 21.0002 13.1365 21.0002 10.5001C21.0002 10.0544 20.8622 9.62483 20.6232 9.21533C18.6042 10.8772 15.1213 11.9319 11.0003 11.9319Z" fill="#80808F"/>
<path fill-rule="evenodd" clip-rule="evenodd" d="M11.0003 10.4999C16.5222 10.4999 21.0002 8.36365 21.0002 5.72724C21.0002 3.09178 16.5222 0.95459 11.0003 0.95459C5.47842 0.95459 1.00049 3.09178 1.00049 5.72724C1.00049 8.36365 5.47842 10.4999 11.0003 10.4999Z" fill="#80808F"/>
</svg>
