<svg width="22" height="21" viewBox="0 0 22 21" fill="none" xmlns="http://www.w3.org/2000/svg">
<path d="M21.6387 18.8908L16.8962 14.1486C18.0131 12.6683 18.6832 10.834 18.6832 8.84118C18.6832 3.96613 14.7159 0 9.84162 0C4.96632 0.00102936 1 3.96716 1 8.84221C1 13.7162 4.96632 17.6834 9.84162 17.6834C11.8335 17.6834 13.669 17.0133 15.1493 15.8964L19.8918 20.6387C20.1326 20.8796 20.4487 21 20.7647 21C21.0807 21 21.3968 20.8796 21.6387 20.6377C22.1204 20.1559 22.1204 19.3736 21.6387 18.8908ZM3.47059 8.84221C3.47059 5.329 6.32823 2.4715 9.84162 2.4715C13.354 2.4715 16.2116 5.329 16.2116 8.84118C16.2116 12.3534 13.354 15.2109 9.84162 15.2109C6.32823 15.2119 3.47059 12.3544 3.47059 8.84221Z" fill="#80808F"/>
</svg>
