<svg width="26" height="26" viewBox="0 0 26 26" fill="none" xmlns="http://www.w3.org/2000/svg">
<rect width="26" height="26" rx="13" fill="#E5E5FF" fill-opacity="0.1"/>
<path d="M7.84961 12.7119C7.85449 12.5264 7.89111 12.3579 7.95947 12.2065C8.02783 12.0503 8.13525 11.8989 8.28174 11.7524L13.8188 6.33252C14.0435 6.11279 14.3145 6.00293 14.6318 6.00293C14.8467 6.00293 15.042 6.05664 15.2178 6.16406C15.3984 6.2666 15.5425 6.40576 15.6499 6.58154C15.7573 6.75732 15.811 6.95264 15.811 7.16748C15.811 7.49463 15.6841 7.78027 15.4302 8.02441L10.6035 12.7046L15.4302 17.3921C15.6841 17.646 15.811 17.9341 15.811 18.2563C15.811 18.4712 15.7573 18.6665 15.6499 18.8423C15.5425 19.0181 15.3984 19.1572 15.2178 19.2598C15.042 19.3672 14.8467 19.4209 14.6318 19.4209C14.3145 19.4209 14.0435 19.3086 13.8188 19.084L8.28174 13.6641C8.13037 13.5176 8.02051 13.3687 7.95215 13.2173C7.88379 13.061 7.84961 12.8926 7.84961 12.7119Z" fill="#E6E6FF" fill-opacity="0.85"/>
</svg>
