<svg width="26" height="26" viewBox="0 0 26 26" fill="none" xmlns="http://www.w3.org/2000/svg">
<rect width="26" height="26" rx="13" fill="#E5E5FF" fill-opacity="0.25"/>
<path d="M8.18262 17.5312C8.04102 17.3896 7.9458 17.2236 7.89697 17.0332C7.85303 16.8379 7.85547 16.645 7.9043 16.4546C7.95312 16.2642 8.04346 16.103 8.17529 15.9712L11.4272 12.7192L8.17529 9.47461C8.04346 9.34277 7.95312 9.18164 7.9043 8.99121C7.85547 8.80078 7.85303 8.61035 7.89697 8.41992C7.9458 8.22461 8.04102 8.05615 8.18262 7.91455C8.32422 7.77295 8.49023 7.68018 8.68066 7.63623C8.87598 7.5874 9.06885 7.5874 9.25928 7.63623C9.44971 7.68018 9.61328 7.76807 9.75 7.8999L12.9946 11.1445L16.2393 7.90723C16.376 7.77051 16.5371 7.68018 16.7227 7.63623C16.9131 7.5874 17.1035 7.5874 17.2939 7.63623C17.4844 7.68506 17.6504 7.78027 17.792 7.92188C17.9385 8.05859 18.0337 8.22461 18.0776 8.41992C18.1265 8.61035 18.1289 8.80078 18.085 8.99121C18.041 9.17676 17.9482 9.34033 17.8066 9.48193L14.5693 12.7192L17.8066 15.9639C17.9482 16.1006 18.041 16.2642 18.085 16.4546C18.1289 16.645 18.1265 16.8354 18.0776 17.0259C18.0337 17.2163 17.9385 17.3823 17.792 17.5239C17.6504 17.6655 17.4844 17.7607 17.2939 17.8096C17.1035 17.8584 16.9131 17.8608 16.7227 17.8169C16.5371 17.7681 16.376 17.6753 16.2393 17.5386L12.9946 14.2939L9.75 17.5459C9.61328 17.6777 9.44971 17.7681 9.25928 17.8169C9.06885 17.8608 8.87598 17.8608 8.68066 17.8169C8.49023 17.7681 8.32422 17.6729 8.18262 17.5312Z" fill="white" fill-opacity="0.75"/>
</svg>
