<svg width="17" height="16" viewBox="0 0 17 16" fill="none" xmlns="http://www.w3.org/2000/svg">
<path fill-rule="evenodd" clip-rule="evenodd" d="M12.266 8.53681C12.1108 8.54069 11.9564 8.51371 11.8119 8.45748C11.6674 8.40125 11.5357 8.3169 11.4246 8.2094C11.3134 8.10189 11.2251 7.97342 11.1649 7.83154C11.1046 7.68966 11.0736 7.53726 11.0736 7.3833C11.0737 7.22935 11.1048 7.07696 11.1652 6.93512C11.2255 6.79328 11.3139 6.66487 11.4251 6.55744C11.5363 6.45001 11.668 6.36574 11.8126 6.3096C11.9571 6.25346 12.1115 6.22659 12.2667 6.23056C12.5699 6.23833 12.8581 6.36328 13.0698 6.57876C13.2814 6.79425 13.3998 7.08322 13.3997 7.38405C13.3996 7.68489 13.281 7.97378 13.0692 8.18913C12.8574 8.40448 12.5692 8.52924 12.266 8.53681ZM8.54991 8.53681C8.39463 8.54069 8.24013 8.5137 8.09554 8.45743C7.95094 8.40116 7.81916 8.31675 7.70797 8.20918C7.59678 8.10161 7.50842 7.97305 7.44811 7.83108C7.3878 7.68911 7.35676 7.53661 7.35681 7.38255C7.35686 7.2285 7.38801 7.07601 7.44841 6.93408C7.50881 6.79215 7.59725 6.66365 7.70851 6.55615C7.81977 6.44865 7.95161 6.36433 8.09624 6.30815C8.24088 6.25198 8.39539 6.22509 8.55067 6.22906C8.85409 6.23683 9.14245 6.36186 9.35425 6.57749C9.56606 6.79311 9.68454 7.08227 9.68444 7.3833C9.68434 7.68433 9.56567 7.97342 9.35372 8.18891C9.14178 8.4044 8.85334 8.52924 8.54991 8.53681ZM4.83311 8.53681C4.67793 8.54069 4.52354 8.51371 4.37903 8.45748C4.23453 8.40125 4.10283 8.3169 3.99171 8.2094C3.88059 8.10189 3.7923 7.97342 3.73202 7.83154C3.67175 7.68966 3.64073 7.53726 3.64078 7.3833C3.64083 7.22935 3.67195 7.07696 3.73232 6.93512C3.79268 6.79328 3.88106 6.66487 3.99225 6.55744C4.10344 6.45001 4.23519 6.36574 4.37974 6.3096C4.52428 6.25346 4.67869 6.22659 4.83387 6.23056C5.13709 6.23833 5.42526 6.36328 5.63693 6.57876C5.84859 6.79425 5.967 7.08322 5.9669 7.38405C5.9668 7.68489 5.8482 7.97378 5.6364 8.18913C5.4246 8.40448 5.13634 8.52924 4.83311 8.53681ZM8.5 0.101562C4.089 0.101562 0.5 3.33706 0.5 7.31431C0.5 9.01681 1.22597 11.3336 3.24809 12.8291L3.00988 15.2996C3.00093 15.3906 3.01714 15.4823 3.05675 15.5649C3.09637 15.6475 3.15791 15.7179 3.23476 15.7684C3.31162 15.819 3.4009 15.8479 3.49304 15.8519C3.58517 15.856 3.67669 15.8351 3.75777 15.7916L6.35235 14.4071C6.67525 14.4401 7.62355 14.5271 8.5 14.5271C12.911 14.5271 16.5 11.2916 16.5 7.31431C16.5 3.33706 12.911 0.101562 8.5 0.101562Z" fill="#E5E5FF" fill-opacity="0.1"/>
</svg>
