<svg width="16" height="15" viewBox="0 0 16 15" fill="none" xmlns="http://www.w3.org/2000/svg">
<path fill-rule="evenodd" clip-rule="evenodd" d="M7.18592 14.4954C7.68074 14.8216 8.31895 14.8216 8.81303 14.4954C10.3844 13.4603 13.8058 10.986 15.2799 8.21728C17.2228 4.56476 14.9411 0.921875 11.9246 0.921875C10.2054 0.921875 9.17115 1.81832 8.59906 2.58872C8.53034 2.68307 8.44023 2.75986 8.33609 2.81281C8.23195 2.86576 8.11673 2.89336 7.99985 2.89336C7.88297 2.89336 7.76775 2.86576 7.66361 2.81281C7.55946 2.75986 7.46935 2.68307 7.40064 2.58872C6.82855 1.81832 5.79433 0.921875 4.07508 0.921875C1.05861 0.921875 -1.22307 4.56476 0.720553 8.21728C2.19313 10.986 5.61601 13.4603 7.18592 14.4954Z" fill="#E6E6FF" fill-opacity="0.85"/>
</svg>
